<svg xmlns="http://www.w3.org/2000/svg" version="1.1" xmlns:xlink="http://www.w3.org/1999/xlink" width="1000" height="1000"><style>
    #light-icon {
      display: inline;
    }
    #dark-icon {
      display: none;
    }

    @media (prefers-color-scheme: dark) {
      #light-icon {
        display: none;
      }
      #dark-icon {
        display: inline;
      }
    }
  </style><g id="light-icon"><svg xmlns="http://www.w3.org/2000/svg" version="1.1" xmlns:xlink="http://www.w3.org/1999/xlink" width="1000" height="1000"><g clip-path="url(#SvgjsClipPath1371)"><rect width="1000" height="1000" fill="#fd494a"></rect><g transform="matrix(8.571428571428571,0,0,8.571428571428571,200,221.42857142857144)"><svg xmlns="http://www.w3.org/2000/svg" version="1.1" xmlns:xlink="http://www.w3.org/1999/xlink" width="70" height="65"><svg width="70" height="65" viewBox="0 0 70 65" fill="none" xmlns="http://www.w3.org/2000/svg">
<path d="M0 0.804199H12.3535L17.7206 15.5746L23.0487 0.804199H35.4023V30.5743H25.3659V16.2605L20.3088 30.5743H15.1736L10.0384 16.2239V30.5743H0.00205286V0.804199H0Z" fill="#DBEF76"></path>
<path d="M37.8159 15.6513C37.8159 6.20614 44.9642 0 53.8504 0C62.7365 0 69.9998 6.20614 69.9998 15.6513C69.9998 25.0964 62.4653 31.3793 53.8504 31.3793C45.2354 31.3793 37.8159 25.5632 37.8159 15.6513ZM59.5279 15.6513C59.5279 12.1778 56.9397 9.87463 53.8873 9.87463C50.8349 9.87463 48.2857 12.1778 48.2857 15.6513C48.2857 19.1247 50.8349 21.5441 53.8873 21.5441C56.9397 21.5441 59.5279 19.2409 59.5279 15.6513Z" fill="#DBEF76"></path>
<path d="M0 33.793H11.1503C18.4304 33.793 24.9425 36.3791 24.9425 44.7292C24.9425 53.0793 18.1228 55.705 11.1503 55.705H9.96275V64.3677H0.00203739V33.7951L0 33.793ZM11.8775 46.9256C13.448 46.9256 14.5215 46.1816 14.5215 44.7313C14.5215 43.2809 13.4113 42.5744 11.8775 42.5744H9.96275V46.9256H11.8775Z" fill="#DBEF76"></path>
<path d="M25.7471 41.7671C25.7471 37.2542 29.3432 33.793 34.5588 33.793C39.7744 33.793 43.4482 37.2522 43.4482 41.7671C43.4482 46.282 39.9319 49.5533 34.5588 49.5533C29.6604 49.5533 25.7471 46.47 25.7471 41.7671ZM26.142 50.681H43.0512V56.3217H26.142V50.681ZM36.6908 41.6911C36.6908 40.5254 35.6637 39.6596 34.5567 39.6596C33.5295 39.6596 32.5024 40.5254 32.5024 41.6911C32.5024 42.8568 33.5295 43.7226 34.5567 43.7226C35.6637 43.7226 36.6908 42.8209 36.6908 41.6911Z" fill="#DBEF76"></path>
<path d="M45.0576 33.793H56.2079C63.488 33.793 70.0001 36.3791 70.0001 44.7292C70.0001 53.0793 63.1804 55.705 56.2079 55.705H55.0204V64.3677H45.0576V33.7951V33.793ZM56.9351 46.9256C58.5056 46.9256 59.5791 46.1816 59.5791 44.7313C59.5791 43.2809 58.4689 42.5744 56.9351 42.5744H55.0204V46.9256H56.9351Z" fill="#DBEF76"></path>
</svg></svg></g></g><defs><clipPath id="SvgjsClipPath1371"><rect width="1000" height="1000" x="0" y="0" rx="150" ry="150"></rect></clipPath></defs></svg></g><g id="dark-icon"><svg xmlns="http://www.w3.org/2000/svg" version="1.1" xmlns:xlink="http://www.w3.org/1999/xlink" width="1000" height="1000"><g clip-path="url(#SvgjsClipPath1372)"><rect width="1000" height="1000" fill="#fd494a"></rect><g transform="matrix(8.571428571428571,0,0,8.571428571428571,200,221.42857142857144)"><svg xmlns="http://www.w3.org/2000/svg" version="1.1" xmlns:xlink="http://www.w3.org/1999/xlink" width="70" height="65"><svg width="70" height="65" viewBox="0 0 70 65" fill="none" xmlns="http://www.w3.org/2000/svg">
<path d="M0 0.804199H12.3535L17.7206 15.5746L23.0487 0.804199H35.4023V30.5743H25.3659V16.2605L20.3088 30.5743H15.1736L10.0384 16.2239V30.5743H0.00205286V0.804199H0Z" fill="#DBEF76"></path>
<path d="M37.8159 15.6513C37.8159 6.20614 44.9642 0 53.8504 0C62.7365 0 69.9998 6.20614 69.9998 15.6513C69.9998 25.0964 62.4653 31.3793 53.8504 31.3793C45.2354 31.3793 37.8159 25.5632 37.8159 15.6513ZM59.5279 15.6513C59.5279 12.1778 56.9397 9.87463 53.8873 9.87463C50.8349 9.87463 48.2857 12.1778 48.2857 15.6513C48.2857 19.1247 50.8349 21.5441 53.8873 21.5441C56.9397 21.5441 59.5279 19.2409 59.5279 15.6513Z" fill="#DBEF76"></path>
<path d="M0 33.793H11.1503C18.4304 33.793 24.9425 36.3791 24.9425 44.7292C24.9425 53.0793 18.1228 55.705 11.1503 55.705H9.96275V64.3677H0.00203739V33.7951L0 33.793ZM11.8775 46.9256C13.448 46.9256 14.5215 46.1816 14.5215 44.7313C14.5215 43.2809 13.4113 42.5744 11.8775 42.5744H9.96275V46.9256H11.8775Z" fill="#DBEF76"></path>
<path d="M25.7471 41.7671C25.7471 37.2542 29.3432 33.793 34.5588 33.793C39.7744 33.793 43.4482 37.2522 43.4482 41.7671C43.4482 46.282 39.9319 49.5533 34.5588 49.5533C29.6604 49.5533 25.7471 46.47 25.7471 41.7671ZM26.142 50.681H43.0512V56.3217H26.142V50.681ZM36.6908 41.6911C36.6908 40.5254 35.6637 39.6596 34.5567 39.6596C33.5295 39.6596 32.5024 40.5254 32.5024 41.6911C32.5024 42.8568 33.5295 43.7226 34.5567 43.7226C35.6637 43.7226 36.6908 42.8209 36.6908 41.6911Z" fill="#DBEF76"></path>
<path d="M45.0576 33.793H56.2079C63.488 33.793 70.0001 36.3791 70.0001 44.7292C70.0001 53.0793 63.1804 55.705 56.2079 55.705H55.0204V64.3677H45.0576V33.7951V33.793ZM56.9351 46.9256C58.5056 46.9256 59.5791 46.1816 59.5791 44.7313C59.5791 43.2809 58.4689 42.5744 56.9351 42.5744H55.0204V46.9256H56.9351Z" fill="#DBEF76"></path>
</svg></svg></g></g><defs><clipPath id="SvgjsClipPath1372"><rect width="1000" height="1000" x="0" y="0" rx="150" ry="150"></rect></clipPath></defs></svg></g></svg>